<svg width="64" height="64" viewBox="0 0 64 64" fill="none" xmlns="http://www.w3.org/2000/svg">
<path d="M32 9C25.519 9 22.6621 12.7559 22.6621 12.7559C22.6621 12.7559 13 13.514 13 27V32C13 32 12 33.4995 12 35.6465C12 38.5215 14.338 41.181 16 42C17.896 49.908 27 55 32 55C37 55 46.104 49.908 48 42C49.662 41.181 52 38.875 52 36C52 33.853 51 32 51 32V27C51 15.577 43.509 9 32 9ZM32 13C41.533 13 47 18.103 47 27V31H46.3418L44.3418 27C30.1228 27.527 25.5312 20.6035 25.5312 20.6035C20.8113 21.9415 18.2725 26.963 17.3535 31V31.002H17V27C17 17.226 24.9844 16.6641 24.9844 16.6641C24.9844 16.6641 25.939 13 32 13ZM24.5898 25.5664C28.3918 29.3224 33.3513 30.8582 41.8633 30.9902L43.8691 35H47.8965C47.9557 35.3042 48 35.6308 48 36C48 38.248 44.5488 39.2422 44.5488 39.2422C44.5488 45.4702 35.417 51 32 51C28.583 51 19.4512 45.8652 19.4512 39.2422C19.4512 39.2422 16 37.8525 16 35.6465C16 35.4132 16.0262 35.2025 16.0625 35.002H20.4863C20.5313 31.761 23.0738 26.9244 24.5898 25.5664ZM26.5 36C25.672 36 25 36.672 25 37.5C25 38.328 25.672 39 26.5 39C27.328 39 28 38.328 28 37.5C28 36.672 27.328 36 26.5 36ZM37.5 36C36.672 36 36 36.672 36 37.5C36 38.328 36.672 39 37.5 39C38.328 39 39 38.328 39 37.5C39 36.672 38.328 36 37.5 36ZM29.5 44C28.948 44 28.5 44.448 28.5 45C28.5 45.552 28.948 46 29.5 46H34.5C35.052 46 35.5 45.552 35.5 45C35.5 44.448 35.052 44 34.5 44H29.5Z" fill="#D13A26"/>
</svg>
