<svg width="64" height="64" viewBox="0 0 64 64" fill="none" xmlns="http://www.w3.org/2000/svg">
<path d="M29.6331 6.30673C29.1809 6.26562 28.7229 6.38076 28.3382 6.63876C27.8242 6.98376 27.4983 7.54715 27.4573 8.16415C27.3443 9.84215 26.658 11.1703 25.93 12.5763C24.923 14.5243 23.782 16.7311 24.303 19.7891C25.001 23.8861 28.2231 25.4568 31.6741 25.3458C31.7645 26.6461 31.6908 27.4556 31.6058 28.0704L22.8245 33.1602C15.4073 33.2979 11.182 38.8153 6.46318 48.254C6.01218 49.157 6.30387 50.2526 7.14287 50.8126C10.2119 52.8576 18.0267 56.7716 18.3577 56.9376C19.5767 57.5476 20.5639 56.7337 20.8519 56.3497L23.3128 53.0684C33.5558 52.2024 37.2039 51.9272 37.3089 51.9122C41.1849 51.3292 44.6355 49.3052 47.0315 46.2052C47.0315 46.2052 54.4328 37.6043 56.8558 34.6993C59.0198 32.1043 58.3691 29.3067 56.7601 27.7227C54.2831 25.2857 49.9078 25.577 46.9378 28.004C45.9226 28.8336 44.1555 30.1873 42.4241 31.5001L35.6351 27.9395C35.7325 26.8562 35.7185 25.8402 35.6604 25.0216C39.2814 24.4036 41.2902 21.9499 41.2522 18.5079C41.1832 12.2789 35.4354 8.16948 30.0804 6.40048C29.9341 6.35173 29.7839 6.32043 29.6331 6.30673ZM30.9612 11.047C34.2622 12.592 37.2152 15.1549 37.2522 18.5509C37.2842 21.5119 33.9225 21.1974 33.4905 21.1544C33.2605 21.1264 33.0154 21.1443 32.7874 21.1993C32.4194 21.2883 28.7574 22.1322 28.2444 19.1192C27.9484 17.3802 28.5917 16.1381 29.4827 14.4161C30.0027 13.4101 30.5672 12.323 30.9612 11.047ZM51.969 30.0138C52.7848 29.9565 53.5319 30.1579 53.9534 30.5724C54.1044 30.7204 54.5695 31.1868 53.7835 32.1368C45.3635 42.3118 43.934 43.6687 43.889 43.7267C42.139 46.0067 39.6166 47.5034 36.7776 47.9454L22.0882 49.1544C21.5172 49.2014 20.9937 49.4894 20.6507 49.9474L18.6585 52.6056C16.7035 51.6066 13.2414 49.8111 10.8694 48.4181C13.0714 44.2061 16.6078 37.1175 23.2308 37.1485C27.9688 37.1715 29.2131 38.1913 29.8831 38.5743C30.2531 38.9213 30.7432 39.1485 31.2522 39.1485H36.7522C37.5792 39.1485 38.2522 39.8215 38.2522 40.6485C38.2522 41.4755 37.5792 42.1485 36.7522 42.1485H25.2522C22.6092 42.1485 22.6032 46.1485 25.2522 46.1485H36.7522C39.7852 46.1485 42.2522 43.6815 42.2522 40.6485C42.2522 39.4415 41.8596 38.3222 41.1976 37.4141C46.4076 33.4781 49.0245 31.5068 49.5745 31.0118C50.268 30.3883 51.1533 30.071 51.969 30.0138Z" fill="#D13A26"/>
</svg>
