<svg width="64" height="64" viewBox="0 0 64 64" fill="none" xmlns="http://www.w3.org/2000/svg">
<path d="M31.9999 8C31.1247 8 30.25 8.18614 29.4355 8.55664L10.1738 17.3105C9.16776 17.7675 8.72262 18.954 9.17962 19.959C9.63662 20.965 10.8241 21.4072 11.8261 20.9512L11.9999 20.873V47C11.9999 49.761 14.2389 52 16.9999 52H46.9999C49.7609 52 51.9999 49.761 51.9999 47V20.873L52.1738 20.9512C52.4408 21.0732 52.721 21.1328 52.998 21.1328C53.757 21.1328 54.4852 20.696 54.8202 19.959C55.2772 18.954 54.8321 17.7675 53.8261 17.3105L34.5663 8.55664C33.7508 8.18614 32.8752 8 31.9999 8ZM29.9999 12.6934V29H15.9999V19.0547L29.9999 12.6934ZM33.9999 12.6934L47.9999 19.0547V29H33.9999V12.6934ZM22.4999 18C21.6719 18 20.9999 18.672 20.9999 19.5C20.9999 20.328 21.6719 21 22.4999 21H24.4999C25.3279 21 25.9999 20.328 25.9999 19.5C25.9999 18.672 25.3279 18 24.4999 18H22.4999ZM39.4999 18C38.6719 18 37.9999 18.672 37.9999 19.5C37.9999 20.328 38.6719 21 39.4999 21H41.4999C42.3279 21 42.9999 20.328 42.9999 19.5C42.9999 18.672 42.3279 18 41.4999 18H39.4999ZM15.9999 33H29.9999V48H17.9999C16.8949 48 15.9999 47.105 15.9999 46V33ZM33.9999 33H47.9999V46C47.9999 47.105 47.1049 48 45.9999 48H33.9999V33ZM21.4999 36C20.6719 36 19.9999 36.672 19.9999 37.5C19.9999 38.328 20.6719 39 21.4999 39H24.4999C25.3279 39 25.9999 38.328 25.9999 37.5C25.9999 36.672 25.3279 36 24.4999 36H21.4999ZM39.4999 36C38.6719 36 37.9999 36.672 37.9999 37.5C37.9999 38.328 38.6719 39 39.4999 39H42.4999C43.3279 39 43.9999 38.328 43.9999 37.5C43.9999 36.672 43.3279 36 42.4999 36H39.4999Z" fill="#D13A26"/>
</svg>
