<svg width="64" height="64" viewBox="0 0 64 64" fill="none" xmlns="http://www.w3.org/2000/svg">
<path d="M3 10C1.896 10 1 10.896 1 12C1 13.104 1.896 14 3 14H10.2969L14.4824 39.9551C14.9544 42.8781 17.4452 45 20.4062 45H48C49.104 45 50 44.104 50 43C50 41.896 49.104 41 48 41H20.4062C19.4202 41 18.5906 40.2924 18.4336 39.3184L18.0586 37H47.6113C50.5573 37 53.0463 34.8913 53.5293 31.9863L55.9727 17.3281C56.0697 16.7481 55.9054 16.156 55.5254 15.707C55.1454 15.259 54.588 15 54 15H14.5098L13.9746 11.6816C13.8176 10.7116 12.981 10 12 10H3ZM15.1562 19H51.6387L49.584 31.3281C49.423 32.2961 48.5923 33 47.6113 33H17.4141L15.1562 19ZM22 49C19.791 49 18 50.791 18 53C18 55.209 19.791 57 22 57C24.209 57 26 55.209 26 53C26 50.791 24.209 49 22 49ZM44 49C41.791 49 40 50.791 40 53C40 55.209 41.791 57 44 57C46.209 57 48 55.209 48 53C48 50.791 46.209 49 44 49Z" fill="#D13A26"/>
</svg>
