<svg width="64" height="64" viewBox="0 0 64 64" fill="none" xmlns="http://www.w3.org/2000/svg">
<path d="M32 10C19.869 10 10 19.869 10 32C10 44.131 19.869 54 32 54C44.131 54 54 44.131 54 32C54 19.869 44.131 10 32 10ZM32 14C41.925 14 50 22.075 50 32C50 41.925 41.925 50 32 50C22.075 50 14 41.925 14 32C14 22.075 22.075 14 32 14ZM29.2461 22.3633C27.2801 22.3633 26.3867 23.2261 26.3867 25.1641V32.1719H24.9473C23.9633 32.1879 23.3887 32.7015 23.3887 33.5645C23.3887 34.4275 23.9643 34.942 24.9473 34.957H26.3867V37.4395H24.7812C23.9032 37.4395 23.3887 37.8784 23.3887 38.6504C23.3887 39.4074 23.9032 39.8613 24.7812 39.8613H26.4473V41.6934C26.5683 42.6464 27.2333 43.1777 28.1113 43.1777C28.9893 43.1777 29.6414 42.6464 29.7754 41.6934V39.8613H33.334C34.197 39.8613 34.7266 39.4074 34.7266 38.6504C34.7266 37.8784 34.196 37.4395 33.334 37.4395H29.8223V34.957H32.7734C37.2544 34.957 39.6602 32.4604 39.6602 28.6914C39.6602 24.8164 37.1177 22.3633 32.8047 22.3633H29.2461ZM29.8086 25.1953H32.3516C34.8346 25.1953 36.1504 26.2693 36.1504 28.7363C36.1504 31.2183 34.8635 32.1738 31.8965 32.1738H29.8086V25.1953Z" fill="#D13A26"/>
</svg>
