<svg width="64" height="64" viewBox="0 0 64 64" fill="none" xmlns="http://www.w3.org/2000/svg">
<path d="M15 9C8.383 9 3 14.383 3 21C3 27.617 8.383 33 15 33C21.617 33 27 27.617 27 21C27 14.383 21.617 9 15 9ZM15 13C19.411 13 23 16.589 23 21C23 25.411 19.411 29 15 29C10.589 29 7 25.411 7 21C7 16.589 10.589 13 15 13ZM15 14C13.896 14 13 14.896 13 16V19H11C9.896 19 9 19.896 9 21C9 22.104 9.896 23 11 23H15C16.104 23 17 22.104 17 21V16C17 14.896 16.104 14 15 14ZM28.7422 15C29.2902 16.253 29.6646 17.596 29.8516 19H34.5C34.776 19 35 19.224 35 19.5V43H28.6523C27.8281 40.6707 25.6119 39 23 39C20.3881 39 18.1719 40.6707 17.3477 43H13.5C13.224 43 13 42.776 13 42.5V35.8516C11.596 35.6636 10.253 35.2921 9 34.7441V42.5C9 44.985 11.015 47 13.5 47H17.3477C18.1719 49.3293 20.3881 51 23 51C25.6119 51 27.8281 49.3293 28.6523 47H41.3477C42.1719 49.3293 44.3881 51 47 51C49.6119 51 51.8281 49.3293 52.6523 47H55C57.209 47 59 45.209 59 43V36C59 35.767 58.9589 35.5354 58.8789 35.3164L55.3574 25.6328C54.7824 24.0518 53.2816 23 51.5996 23H39V19.5C39 17.015 36.985 15 34.5 15H28.7422ZM39 27H51.248C51.458 27 51.6468 27.1321 51.7188 27.3301L55 36.3535V42.5C55 42.776 54.776 43 54.5 43H52.6523C51.8281 40.6707 49.6119 39 47 39C44.3881 39 42.1719 40.6707 41.3477 43H39V27ZM23 43C24.105 43 25 43.895 25 45C25 46.105 24.105 47 23 47C21.895 47 21 46.105 21 45C21 43.895 21.895 43 23 43ZM47 43C48.105 43 49 43.895 49 45C49 46.105 48.105 47 47 47C45.895 47 45 46.105 45 45C45 43.895 45.895 43 47 43Z" fill="#D13A26"/>
</svg>
