<svg width="28" height="22" viewBox="0 0 28 22" fill="none" xmlns="http://www.w3.org/2000/svg">
<path d="M3.33268 21.7581C2.59935 21.7581 1.97179 21.4973 1.45002 20.9755C0.928238 20.4537 0.666905 19.8257 0.666016 19.0915V3.09147C0.666016 2.35814 0.927349 1.73058 1.45002 1.2088C1.97268 0.687027 2.60024 0.425694 3.33268 0.424805H24.666C25.3993 0.424805 26.0273 0.686138 26.55 1.2088C27.0727 1.73147 27.3336 2.35903 27.3327 3.09147V19.0915C27.3327 19.8248 27.0718 20.4528 26.55 20.9755C26.0282 21.4981 25.4002 21.759 24.666 21.7581H3.33268ZM13.9993 12.4248L24.666 5.75814V3.09147L13.9993 9.75814L3.33268 3.09147V5.75814L13.9993 12.4248Z" fill="white"/>
</svg>
