<svg width="24" height="36" viewBox="0 0 24 36" fill="none" xmlns="http://www.w3.org/2000/svg">
<path d="M12 17.0498C10.8634 17.0498 9.77327 16.5889 8.96954 15.7684C8.16582 14.9479 7.71429 13.8351 7.71429 12.6748C7.71429 11.5145 8.16582 10.4017 8.96954 9.58121C9.77327 8.76074 10.8634 8.2998 12 8.2998C13.1366 8.2998 14.2267 8.76074 15.0305 9.58121C15.8342 10.4017 16.2857 11.5145 16.2857 12.6748C16.2857 13.2493 16.1749 13.8182 15.9595 14.349C15.7441 14.8798 15.4284 15.3621 15.0305 15.7684C14.6325 16.1747 14.16 16.4969 13.6401 16.7168C13.1201 16.9366 12.5628 17.0498 12 17.0498ZM12 0.424805C8.8174 0.424805 5.76515 1.71543 3.51472 4.01275C1.26428 6.31007 0 9.4259 0 12.6748C0 21.8623 12 35.4248 12 35.4248C12 35.4248 24 21.8623 24 12.6748C24 9.4259 22.7357 6.31007 20.4853 4.01275C18.2348 1.71543 15.1826 0.424805 12 0.424805Z" fill="white"/>
</svg>
